<svg width="196" height="28" viewBox="0 0 196 28" fill="none" xmlns="http://www.w3.org/2000/svg">
<path d="M47.8507 7.625V19H45.2179V10.5938L42.6241 11.3516V9.35156L47.6085 7.625H47.8507ZM59.6467 12.2734V14.3516C59.6467 15.1693 59.5504 15.8802 59.3577 16.4844C59.1702 17.0885 58.8993 17.5885 58.5452 17.9844C58.1962 18.3802 57.7795 18.6745 57.2952 18.8672C56.8108 19.0599 56.2769 19.1562 55.6936 19.1562C55.2248 19.1562 54.7873 19.0964 54.3811 18.9766C53.9748 18.8516 53.6077 18.6641 53.2795 18.4141C52.9566 18.1589 52.678 17.8411 52.4436 17.4609C52.2092 17.0807 52.0295 16.6328 51.9045 16.1172C51.7795 15.5964 51.717 15.0078 51.717 14.3516V12.2734C51.717 11.4505 51.8108 10.7396 51.9983 10.1406C52.191 9.53646 52.4644 9.03646 52.8186 8.64062C53.1728 8.24479 53.592 7.95052 54.0764 7.75781C54.5608 7.5651 55.0946 7.46875 55.678 7.46875C56.1467 7.46875 56.5816 7.53125 56.9827 7.65625C57.3889 7.77604 57.7561 7.96354 58.0842 8.21875C58.4123 8.46875 58.691 8.78385 58.9202 9.16406C59.1545 9.54427 59.3342 9.99479 59.4592 10.5156C59.5842 11.0312 59.6467 11.6172 59.6467 12.2734ZM57.0139 14.6719V11.9375C57.0139 11.5729 56.9931 11.2552 56.9514 10.9844C56.9149 10.7135 56.8577 10.4844 56.7795 10.2969C56.7066 10.1094 56.6155 9.95833 56.5061 9.84375C56.3967 9.72396 56.2717 9.63802 56.1311 9.58594C55.9957 9.52865 55.8446 9.5 55.678 9.5C55.4696 9.5 55.2821 9.54427 55.1155 9.63281C54.954 9.71615 54.816 9.85156 54.7014 10.0391C54.5868 10.2266 54.4983 10.4766 54.4358 10.7891C54.3785 11.1016 54.3498 11.4844 54.3498 11.9375V14.6719C54.3498 15.0417 54.3681 15.3646 54.4045 15.6406C54.4462 15.9115 54.5035 16.1432 54.5764 16.3359C54.6545 16.5234 54.7483 16.6771 54.8577 16.7969C54.967 16.9115 55.092 16.9948 55.2327 17.0469C55.3733 17.099 55.5269 17.125 55.6936 17.125C55.8967 17.125 56.079 17.0833 56.2405 17C56.4019 16.9167 56.5399 16.7812 56.6545 16.5938C56.7743 16.401 56.8629 16.1484 56.9202 15.8359C56.9827 15.5182 57.0139 15.1302 57.0139 14.6719ZM61.6927 17.7656C61.6927 17.3906 61.8281 17.0781 62.099 16.8281C62.3698 16.5729 62.7188 16.4453 63.1458 16.4453C63.5781 16.4453 63.9271 16.5729 64.1927 16.8281C64.4636 17.0781 64.599 17.3906 64.599 17.7656C64.599 18.1406 64.4636 18.4557 64.1927 18.7109C63.9271 18.9609 63.5781 19.0859 63.1458 19.0859C62.7188 19.0859 62.3698 18.9609 62.099 18.7109C61.8281 18.4557 61.6927 18.1406 61.6927 17.7656ZM61.6927 11.5312C61.6927 11.1562 61.8281 10.8438 62.099 10.5938C62.3698 10.3385 62.7188 10.2109 63.1458 10.2109C63.5781 10.2109 63.9271 10.3385 64.1927 10.5938C64.4636 10.8438 64.599 11.1562 64.599 11.5312C64.599 11.9062 64.4636 12.2214 64.1927 12.4766C63.9271 12.7266 63.5781 12.8516 63.1458 12.8516C62.7188 12.8516 62.3698 12.7266 62.099 12.4766C61.8281 12.2214 61.6927 11.9062 61.6927 11.5312ZM74.6294 12.2734V14.3516C74.6294 15.1693 74.533 15.8802 74.3403 16.4844C74.1528 17.0885 73.882 17.5885 73.5278 17.9844C73.1788 18.3802 72.7622 18.6745 72.2778 18.8672C71.7934 19.0599 71.2596 19.1562 70.6762 19.1562C70.2075 19.1562 69.77 19.0964 69.3637 18.9766C68.9575 18.8516 68.5903 18.6641 68.2622 18.4141C67.9392 18.1589 67.6606 17.8411 67.4262 17.4609C67.1919 17.0807 67.0122 16.6328 66.8872 16.1172C66.7622 15.5964 66.6997 15.0078 66.6997 14.3516V12.2734C66.6997 11.4505 66.7934 10.7396 66.9809 10.1406C67.1736 9.53646 67.4471 9.03646 67.8012 8.64062C68.1554 8.24479 68.5747 7.95052 69.059 7.75781C69.5434 7.5651 70.0773 7.46875 70.6606 7.46875C71.1294 7.46875 71.5642 7.53125 71.9653 7.65625C72.3715 7.77604 72.7387 7.96354 73.0669 8.21875C73.395 8.46875 73.6736 8.78385 73.9028 9.16406C74.1372 9.54427 74.3169 9.99479 74.4419 10.5156C74.5669 11.0312 74.6294 11.6172 74.6294 12.2734ZM71.9965 14.6719V11.9375C71.9965 11.5729 71.9757 11.2552 71.934 10.9844C71.8976 10.7135 71.8403 10.4844 71.7622 10.2969C71.6892 10.1094 71.5981 9.95833 71.4887 9.84375C71.3794 9.72396 71.2544 9.63802 71.1137 9.58594C70.9783 9.52865 70.8273 9.5 70.6606 9.5C70.4523 9.5 70.2648 9.54427 70.0981 9.63281C69.9366 9.71615 69.7986 9.85156 69.684 10.0391C69.5695 10.2266 69.4809 10.4766 69.4184 10.7891C69.3611 11.1016 69.3325 11.4844 69.3325 11.9375V14.6719C69.3325 15.0417 69.3507 15.3646 69.3872 15.6406C69.4288 15.9115 69.4861 16.1432 69.559 16.3359C69.6372 16.5234 69.7309 16.6771 69.8403 16.7969C69.9497 16.9115 70.0747 16.9948 70.2153 17.0469C70.3559 17.099 70.5096 17.125 70.6762 17.125C70.8794 17.125 71.0616 17.0833 71.2231 17C71.3846 16.9167 71.5226 16.7812 71.6372 16.5938C71.757 16.401 71.8455 16.1484 71.9028 15.8359C71.9653 15.5182 71.9965 15.1302 71.9965 14.6719ZM84.355 12.2734V14.3516C84.355 15.1693 84.2587 15.8802 84.066 16.4844C83.8785 17.0885 83.6076 17.5885 83.2535 17.9844C82.9045 18.3802 82.4879 18.6745 82.0035 18.8672C81.5191 19.0599 80.9853 19.1562 80.4019 19.1562C79.9332 19.1562 79.4957 19.0964 79.0894 18.9766C78.6832 18.8516 78.316 18.6641 77.9879 18.4141C77.6649 18.1589 77.3863 17.8411 77.1519 17.4609C76.9175 17.0807 76.7379 16.6328 76.6129 16.1172C76.4879 15.5964 76.4254 15.0078 76.4254 14.3516V12.2734C76.4254 11.4505 76.5191 10.7396 76.7066 10.1406C76.8993 9.53646 77.1728 9.03646 77.5269 8.64062C77.8811 8.24479 78.3004 7.95052 78.7847 7.75781C79.2691 7.5651 79.803 7.46875 80.3863 7.46875C80.855 7.46875 81.2899 7.53125 81.691 7.65625C82.0972 7.77604 82.4644 7.96354 82.7925 8.21875C83.1207 8.46875 83.3993 8.78385 83.6285 9.16406C83.8629 9.54427 84.0425 9.99479 84.1675 10.5156C84.2925 11.0312 84.355 11.6172 84.355 12.2734ZM81.7222 14.6719V11.9375C81.7222 11.5729 81.7014 11.2552 81.6597 10.9844C81.6233 10.7135 81.566 10.4844 81.4879 10.2969C81.4149 10.1094 81.3238 9.95833 81.2144 9.84375C81.105 9.72396 80.98 9.63802 80.8394 9.58594C80.704 9.52865 80.553 9.5 80.3863 9.5C80.178 9.5 79.9905 9.54427 79.8238 9.63281C79.6623 9.71615 79.5243 9.85156 79.4097 10.0391C79.2951 10.2266 79.2066 10.4766 79.1441 10.7891C79.0868 11.1016 79.0582 11.4844 79.0582 11.9375V14.6719C79.0582 15.0417 79.0764 15.3646 79.1129 15.6406C79.1545 15.9115 79.2118 16.1432 79.2847 16.3359C79.3629 16.5234 79.4566 16.6771 79.566 16.7969C79.6754 16.9115 79.8004 16.9948 79.941 17.0469C80.0816 17.099 80.2353 17.125 80.4019 17.125C80.605 17.125 80.7873 17.0833 80.9488 17C81.1103 16.9167 81.2483 16.7812 81.3629 16.5938C81.4826 16.401 81.5712 16.1484 81.6285 15.8359C81.691 15.5182 81.7222 15.1302 81.7222 14.6719ZM95.5955 10.0156L92.8221 19H89.8767L94.0564 7.625H95.9236L95.5955 10.0156ZM97.8924 19L95.1111 10.0156L94.7517 7.625H96.6424L100.845 19H97.8924ZM97.783 14.7578V16.875H91.9471V14.7578H97.783ZM103.485 7.625H105.72L108.259 15.5391L110.798 7.625H113.032L109.165 19H107.352L103.485 7.625ZM102.126 7.625H104.438L104.868 16.3438V19H102.126V7.625ZM112.079 7.625H114.399V19H111.649V16.3438L112.079 7.625ZM126.046 13.0781V15.1172H121.351V13.0781H126.046ZM140.88 16.9688V19H132.943V17.2812L136.599 13.4375C136.922 13.0677 137.182 12.737 137.38 12.4453C137.578 12.1484 137.721 11.8802 137.81 11.6406C137.904 11.401 137.951 11.1849 137.951 10.9922C137.951 10.6641 137.901 10.3906 137.802 10.1719C137.708 9.94792 137.568 9.77865 137.38 9.66406C137.198 9.54948 136.971 9.49219 136.701 9.49219C136.43 9.49219 136.193 9.57031 135.99 9.72656C135.786 9.88281 135.628 10.0964 135.513 10.3672C135.404 10.638 135.349 10.9427 135.349 11.2812H132.708C132.708 10.5833 132.878 9.94531 133.216 9.36719C133.56 8.78906 134.036 8.32812 134.646 7.98438C135.255 7.63542 135.961 7.46094 136.763 7.46094C137.602 7.46094 138.305 7.59115 138.872 7.85156C139.44 8.11198 139.867 8.48958 140.154 8.98438C140.445 9.47396 140.591 10.0651 140.591 10.7578C140.591 11.1536 140.529 11.5339 140.404 11.8984C140.279 12.263 140.099 12.625 139.865 12.9844C139.63 13.3385 139.344 13.7031 139.005 14.0781C138.672 14.4531 138.292 14.8516 137.865 15.2734L136.396 16.9688H140.88ZM142.887 17.7656C142.887 17.3906 143.023 17.0781 143.293 16.8281C143.564 16.5729 143.913 16.4453 144.34 16.4453C144.773 16.4453 145.122 16.5729 145.387 16.8281C145.658 17.0781 145.793 17.3906 145.793 17.7656C145.793 18.1406 145.658 18.4557 145.387 18.7109C145.122 18.9609 144.773 19.0859 144.34 19.0859C143.913 19.0859 143.564 18.9609 143.293 18.7109C143.023 18.4557 142.887 18.1406 142.887 17.7656ZM142.887 11.5312C142.887 11.1562 143.023 10.8438 143.293 10.5938C143.564 10.3385 143.913 10.2109 144.34 10.2109C144.773 10.2109 145.122 10.3385 145.387 10.5938C145.658 10.8438 145.793 11.1562 145.793 11.5312C145.793 11.9062 145.658 12.2214 145.387 12.4766C145.122 12.7266 144.773 12.8516 144.34 12.8516C143.913 12.8516 143.564 12.7266 143.293 12.4766C143.023 12.2214 142.887 11.9062 142.887 11.5312ZM155.824 12.2734V14.3516C155.824 15.1693 155.727 15.8802 155.535 16.4844C155.347 17.0885 155.076 17.5885 154.722 17.9844C154.373 18.3802 153.957 18.6745 153.472 18.8672C152.988 19.0599 152.454 19.1562 151.871 19.1562C151.402 19.1562 150.964 19.0964 150.558 18.9766C150.152 18.8516 149.785 18.6641 149.457 18.4141C149.134 18.1589 148.855 17.8411 148.621 17.4609C148.386 17.0807 148.207 16.6328 148.082 16.1172C147.957 15.5964 147.894 15.0078 147.894 14.3516V12.2734C147.894 11.4505 147.988 10.7396 148.175 10.1406C148.368 9.53646 148.641 9.03646 148.996 8.64062C149.35 8.24479 149.769 7.95052 150.253 7.75781C150.738 7.5651 151.272 7.46875 151.855 7.46875C152.324 7.46875 152.759 7.53125 153.16 7.65625C153.566 7.77604 153.933 7.96354 154.261 8.21875C154.589 8.46875 154.868 8.78385 155.097 9.16406C155.332 9.54427 155.511 9.99479 155.636 10.5156C155.761 11.0312 155.824 11.6172 155.824 12.2734ZM153.191 14.6719V11.9375C153.191 11.5729 153.17 11.2552 153.128 10.9844C153.092 10.7135 153.035 10.4844 152.957 10.2969C152.884 10.1094 152.793 9.95833 152.683 9.84375C152.574 9.72396 152.449 9.63802 152.308 9.58594C152.173 9.52865 152.022 9.5 151.855 9.5C151.647 9.5 151.459 9.54427 151.293 9.63281C151.131 9.71615 150.993 9.85156 150.878 10.0391C150.764 10.2266 150.675 10.4766 150.613 10.7891C150.556 11.1016 150.527 11.4844 150.527 11.9375V14.6719C150.527 15.0417 150.545 15.3646 150.582 15.6406C150.623 15.9115 150.681 16.1432 150.753 16.3359C150.832 16.5234 150.925 16.6771 151.035 16.7969C151.144 16.9115 151.269 16.9948 151.41 17.0469C151.55 17.099 151.704 17.125 151.871 17.125C152.074 17.125 152.256 17.0833 152.418 17C152.579 16.9167 152.717 16.7812 152.832 16.5938C152.951 16.401 153.04 16.1484 153.097 15.8359C153.16 15.5182 153.191 15.1302 153.191 14.6719ZM165.549 12.2734V14.3516C165.549 15.1693 165.453 15.8802 165.26 16.4844C165.073 17.0885 164.802 17.5885 164.448 17.9844C164.099 18.3802 163.682 18.6745 163.198 18.8672C162.714 19.0599 162.18 19.1562 161.596 19.1562C161.128 19.1562 160.69 19.0964 160.284 18.9766C159.878 18.8516 159.51 18.6641 159.182 18.4141C158.859 18.1589 158.581 17.8411 158.346 17.4609C158.112 17.0807 157.932 16.6328 157.807 16.1172C157.682 15.5964 157.62 15.0078 157.62 14.3516V12.2734C157.62 11.4505 157.714 10.7396 157.901 10.1406C158.094 9.53646 158.367 9.03646 158.721 8.64062C159.076 8.24479 159.495 7.95052 159.979 7.75781C160.464 7.5651 160.997 7.46875 161.581 7.46875C162.049 7.46875 162.484 7.53125 162.885 7.65625C163.292 7.77604 163.659 7.96354 163.987 8.21875C164.315 8.46875 164.594 8.78385 164.823 9.16406C165.057 9.54427 165.237 9.99479 165.362 10.5156C165.487 11.0312 165.549 11.6172 165.549 12.2734ZM162.917 14.6719V11.9375C162.917 11.5729 162.896 11.2552 162.854 10.9844C162.818 10.7135 162.76 10.4844 162.682 10.2969C162.609 10.1094 162.518 9.95833 162.409 9.84375C162.299 9.72396 162.174 9.63802 162.034 9.58594C161.898 9.52865 161.747 9.5 161.581 9.5C161.372 9.5 161.185 9.54427 161.018 9.63281C160.857 9.71615 160.719 9.85156 160.604 10.0391C160.49 10.2266 160.401 10.4766 160.339 10.7891C160.281 11.1016 160.253 11.4844 160.253 11.9375V14.6719C160.253 15.0417 160.271 15.3646 160.307 15.6406C160.349 15.9115 160.406 16.1432 160.479 16.3359C160.557 16.5234 160.651 16.6771 160.76 16.7969C160.87 16.9115 160.995 16.9948 161.135 17.0469C161.276 17.099 161.43 17.125 161.596 17.125C161.799 17.125 161.982 17.0833 162.143 17C162.305 16.9167 162.443 16.7812 162.557 16.5938C162.677 16.401 162.766 16.1484 162.823 15.8359C162.885 15.5182 162.917 15.1302 162.917 14.6719ZM176.509 15.1406H173.681V13.0234H176.509C176.894 13.0234 177.207 12.9583 177.446 12.8281C177.686 12.6979 177.86 12.5182 177.97 12.2891C178.084 12.0547 178.141 11.7917 178.141 11.5C178.141 11.1875 178.084 10.8984 177.97 10.6328C177.86 10.3672 177.686 10.1536 177.446 9.99219C177.207 9.82552 176.894 9.74219 176.509 9.74219H174.712V19H171.97V7.625H176.509C177.42 7.625 178.204 7.79167 178.86 8.125C179.522 8.45833 180.03 8.91667 180.384 9.5C180.738 10.0781 180.915 10.7396 180.915 11.4844C180.915 12.2188 180.738 12.8594 180.384 13.4062C180.03 13.9531 179.522 14.3802 178.86 14.6875C178.204 14.9896 177.42 15.1406 176.509 15.1406ZM184.195 7.625H186.43L188.969 15.5391L191.508 7.625H193.742L189.875 19H188.062L184.195 7.625ZM182.836 7.625H185.148L185.578 16.3438V19H182.836V7.625ZM192.789 7.625H195.109V19H192.359V16.3438L192.789 7.625Z" fill="#373737"/>
<path fill-rule="evenodd" clip-rule="evenodd" d="M40 22.3333C44.6024 22.3333 48.3334 18.6023 48.3334 14C48.3334 9.39761 44.6024 5.66666 40 5.66666C35.3976 5.66666 31.6667 9.39761 31.6667 14C31.6667 18.6023 35.3976 22.3333 40 22.3333ZM40 20.6667C43.6819 20.6667 46.6667 17.6819 46.6667 14C46.6667 10.3181 43.6819 7.33332 40 7.33332C36.3181 7.33332 33.3334 10.3181 33.3334 14C33.3334 17.6819 36.3181 20.6667 40 20.6667ZM39.1667 9.83332H37.5V15.6667H43.3334V14H39.1667V9.83332Z" fill="#2D2D2D"/>
<mask id="mask0_7000_139" style="mask-type:luminance" maskUnits="userSpaceOnUse" x="31" y="5" width="18" height="18">
<path fill-rule="evenodd" clip-rule="evenodd" d="M40 22.3333C44.6024 22.3333 48.3334 18.6023 48.3334 14C48.3334 9.39761 44.6024 5.66666 40 5.66666C35.3976 5.66666 31.6667 9.39761 31.6667 14C31.6667 18.6023 35.3976 22.3333 40 22.3333ZM40 20.6667C43.6819 20.6667 46.6667 17.6819 46.6667 14C46.6667 10.3181 43.6819 7.33332 40 7.33332C36.3181 7.33332 33.3334 10.3181 33.3334 14C33.3334 17.6819 36.3181 20.6667 40 20.6667ZM39.1667 9.83332H37.5V15.6667H43.3334V14H39.1667V9.83332Z" fill="white"/>
</mask>
<g mask="url(#mask0_7000_139)">
</g>
</svg>
